<?xml version="1.0" ?><!DOCTYPE svg  PUBLIC '-//W3C//DTD SVG 1.1//EN'  'http://www.w3.org/Graphics/SVG/1.1/DTD/svg11.dtd'><svg enable-background="new 0 0 512 512" height="512px" id="Слой_1" version="1.1" viewBox="0 0 512 512" width="512px" xml:space="preserve" xmlns="http://www.w3.org/2000/svg" xmlns:xlink="http://www.w3.org/1999/xlink"><g id="vkontakte_1_"><g><path d="M511.992,256.001c0,141.387-114.607,255.98-255.996,255.98c-141.381,0-255.988-114.594-255.988-255.98    C0.008,114.62,114.615,0.019,255.996,0.019C397.385,0.019,511.992,114.62,511.992,256.001z" fill="#33739E"/><path d="M504.844,316.007L396.268,207.415l-74.765,47.875l-50.71-50.711l-52.554,52.545l39.187,39.188    l-7.875,5.047l-94.271-94.287l-32.109,32.102l87.241,87.24L179.6,346.14l153.88,153.881    C418.275,473.122,483.883,403.271,504.844,316.007z" opacity="0.15"/></g><path d="M261.199,368.546c7.695,0,10.852-5.117,10.742-11.531   c-0.391-24.203,9.039-37.234,26.039-20.266c18.813,18.797,22.702,31.797,45.554,31.797c8.671,0,32.015,0,40.444,0   c31.82,0,3.469-31.891-18.945-52.672c-21.312-19.75-22.319-20.227-3.969-44c22.789-29.514,52.578-67.553,26.219-67.553   c-5.156,0-1.477,0-50.319,0c-9.773,0-10.484,5.695-13.945,13.891c-12.569,29.602-36.483,67.99-45.554,62.123   c-9.516-6.133-5.164-26.92-4.438-62.951c0.195-9.516,0.141-16.063-14.414-19.43c-39.78-9.227-74.24,8.906-60.163,11.516   c19.844,3.703,17.945,43.156,13.328,61.693c-8.063,32.258-38.39-25.537-51.015-54.334c-3.055-6.922-3.984-12.508-14.867-12.508   c-5.969,0-32.301,0-41.152,0c-7.926,0-11.815,3.625-9.034,10.992c2.757,7.352,34.608,78.475,72.257,119.053   C202.794,371.921,237.238,368.546,261.199,368.546z" fill="#F4F6F9" id="V_kontakte_1_"/></g></svg>